<svg version="1.2" preserveAspectRatio="none" viewBox="0 -0.5039177277179228 49 49" class="ng-element" style="opacity: 1; mix-blend-mode: normal; fill: rgb(179, 179, 179); width: 15px; height: 15px;"  xmlns="http://www.w3.org/2000/svg"><g><g xmlns:default="http://www.w3.org/2000/svg">
	<g>
		<path d="M46,5H36V1c0-0.6-0.4-1-1-1s-1,0.4-1,1v4h-9V1c0-0.6-0.4-1-1-1s-1,0.4-1,1v4h-9V1c0-0.6-0.4-1-1-1c-0.6,0-1,0.4-1,1v4H3    C1.3,5,0,6.3,0,8v37c0,1.7,1.3,3,3,3h43c1.7,0,3-1.3,3-3V8C49,6.3,47.7,5,46,5z M47,45c0,0.6-0.4,1-1,1H3c-0.6,0-1-0.4-1-1V8    c0-0.6,0.4-1,1-1h9v3c0,0.6,0.4,1,1,1c0.6,0,1-0.4,1-1V7h9v3c0,0.6,0.4,1,1,1s1-0.4,1-1V7h9v3c0,0.6,0.4,1,1,1s1-0.4,1-1V7h10    c0.6,0,1,0.4,1,1V45z M6,21h6v-6H6V21z M8,17h2v2H8V17z M16,21h6v-6h-6V21z M18,17h2v2h-2V17z M26,21h6v-6h-6V21z M28,17h2v2h-2    V17z M36,21h6v-6h-6V21z M38,17h2v2h-2V17z M6,31h6v-6H6V31z M8,27h2v2H8V27z M16,31h6v-6h-6V31z M18,27h2v2h-2V27z M26,31h6v-6    h-6V31z M28,27h2v2h-2V27z M36,31h6v-6h-6V31z M38,27h2v2h-2V27z M6,41h6v-6H6V41z M8,37h2v2H8V37z M16,41h6v-6h-6V41z M18,37h2v2    h-2V37z M26,41h6v-6h-6V41z M28,37h2v2h-2V37z M36,41h6v-6h-6V41z M38,37h2v2h-2V37z" style="fill: rgb(179, 179, 179);"></path>
	</g>
</g></g></svg>