<svg version="1.2" preserveAspectRatio="none" viewBox="0 0 26 26" class="ng-element" style="opacity: 1; mix-blend-mode: normal; fill: rgb(179, 179, 179); "  xmlns="http://www.w3.org/2000/svg"><g><defs> </defs> <rect display="none" fill="#FFA400" width="26" height="26" style="fill: rgb(179, 179, 179);"></rect> <rect id="_x3C_Slice_x3E__81_" display="none" fill="none" width="26" height="26" style="fill: rgb(179, 179, 179);"></rect> <path fill-rule="evenodd" clip-rule="evenodd" d="M17,2.697v3.249c2.961,1.474,5,4.521,5,8.054c0,4.971-4.029,9-9,9s-9-4.029-9-9 c0-3.532,2.039-6.58,5-8.054V2.697C4.342,4.347,1,8.777,1,14c0,6.628,5.373,12,12,12s12-5.372,12-12C25,8.777,21.658,4.347,17,2.697 z M13,10c1.104,0,2-0.896,2-2V2c0-1.104-0.896-2-2-2s-2,0.896-2,2v6C11,9.104,11.896,10,13,10z" style="fill: rgb(179, 179, 179);"></path> </g></svg>
