<svg  xmlns="http://www.w3.org/2000/svg" version="1.2" preserveAspectRatio="none" viewBox="0 0 24 24" class="ng-element" style="opacity: 1; mix-blend-mode: normal; fill: rgb(154, 149, 156); width: 20px; height: 20px;"    ><g><defs> </defs> <rect display="none" fill="#FFA400" width="24" height="24" style="fill: rgb(154, 149, 156);"></rect> <rect id="_x3C_Slice_x3E__126_" display="none" fill="none" width="24" height="24" style="fill: rgb(154, 149, 156);"></rect> <path fill-rule="evenodd" clip-rule="evenodd" d="M12,0C5.373,0,0,5.373,0,12s5.373,12,12,12s12-5.373,12-12S18.627,0,12,0z M19,13 c0,0.552-0.447,1-1,1h-4v4c0,0.552-0.447,1-1,1h-2c-0.553,0-1-0.448-1-1v-4H6c-0.553,0-1-0.448-1-1v-2c0-0.552,0.447-1,1-1h4V6 c0-0.552,0.447-1,1-1h2c0.553,0,1,0.448,1,1v4h4c0.553,0,1,0.448,1,1V13z" style="fill: rgb(154, 149, 156);"></path> </g></svg>
