<svg xmlns="http://www.w3.org/2000/svg" version="1.2" preserveAspectRatio="none" viewBox="-0.5100000000000016 0 51 51" class="ng-element" style="opacity: 1; mix-blend-mode: normal; fill: rgb(154, 149, 156); width: 20px; height: 20px;"><g>
	<g>
		<path class="st0" d="M35,6C27-2,14-2,6,6c-8,8-8,21,0,29c8,8,21,8,29,0C43,27,43,14,35,6z M33.6,33.6c-7.2,7.2-18.9,7.2-26.2,0    c-7.2-7.2-7.2-18.9,0-26.2c7.2-7.2,18.9-7.2,26.2,0C40.8,14.6,40.8,26.4,33.6,33.6z M38,37l-2,2l12,12l2-2L38,37z" style="fill: rgb(154, 149, 156);"></path>
	</g>
</g><g></g></svg>